<svg width="676" height="127" viewBox="0 0 676 127" fill="none" xmlns="http://www.w3.org/2000/svg">
<path fill-rule="evenodd" clip-rule="evenodd" d="M19.2094 100H0.975319L37.3603 0.909088H53.1852L89.5701 100H71.3361L61.9773 73.6364H28.5682L19.2094 100ZM17.0909 97H5.27273L39.4545 3.90909H51.0909L85.2727 97H73.4545L64.0958 70.6364H26.4497L17.0909 97ZM29.9996 60.6364H60.5459L45.6364 18.6364H44.9091L29.9996 60.6364ZM34.248 57.6364H56.2975L45.2727 26.5797L34.248 57.6364ZM150.967 24.1818L122.93 100H107.843L79.8057 24.1818H97.8857L115.386 74.7027L132.887 24.1818H150.967ZM115.75 82.8182H115.023L95.75 27.1818H84.1136L109.932 97H120.841L146.659 27.1818H135.023L115.75 82.8182ZM168.613 96.5569L168.603 96.5511C163.252 93.24 159.135 88.6217 156.262 82.7779L156.258 82.7688L156.253 82.7596C153.416 76.8873 152.045 70.1532 152.045 62.6364C152.045 55.1185 153.416 48.3597 156.248 42.434L156.251 42.4276C159.104 36.4921 163.121 31.7812 168.317 28.3956C173.587 24.951 179.686 23.2727 186.5 23.2727C190.477 23.2727 194.395 23.9366 198.243 25.2522C202.214 26.6099 205.803 28.8098 209.001 31.8064C212.302 34.8689 214.849 38.8526 216.706 43.6427C218.607 48.5439 219.5 54.4218 219.5 61.1818V68.7273H169.03C169.391 71.673 170.123 74.1973 171.182 76.3367C172.787 79.4898 174.957 81.81 177.685 83.4038C180.437 84.9814 183.707 85.8182 187.591 85.8182C190.126 85.8182 192.328 85.4646 194.233 84.8058C196.147 84.1244 197.752 83.1358 199.09 81.8499C200.407 80.5534 201.466 78.9101 202.236 76.8557L203.204 74.2762L219.188 78.763L218.274 81.7074C217.043 85.6741 214.966 89.1735 212.067 92.1751L212.061 92.1813L212.055 92.1874C209.153 95.1581 205.601 97.4421 201.459 99.0658L201.449 99.0696L201.439 99.0733C197.256 100.68 192.626 101.455 187.591 101.455C180.412 101.455 174.049 99.8658 168.622 96.5626L168.613 96.5569ZM201.182 84C199.515 85.6061 197.53 86.8182 195.227 87.6364C192.955 88.4242 190.409 88.8182 187.591 88.8182C183.258 88.8182 179.455 87.8788 176.182 86C172.909 84.0909 170.348 81.3182 168.5 77.6818C167.218 75.0963 166.388 72.1114 166.01 68.7273C165.902 67.7599 165.831 66.7599 165.796 65.7273H216.5V61.1818C216.5 54.6667 215.636 49.1818 213.909 44.7273C212.182 40.2727 209.864 36.697 206.955 34C204.045 31.2727 200.818 29.303 197.273 28.0909C193.727 26.8788 190.136 26.2727 186.5 26.2727C180.197 26.2727 174.682 27.8182 169.955 30.9091C165.258 33.9697 161.591 38.2424 158.955 43.7273C156.348 49.1818 155.045 55.4848 155.045 62.6364C155.045 69.7879 156.348 76.0606 158.955 81.4545C161.591 86.8182 165.333 91 170.182 94C175.061 96.9697 180.864 98.4545 187.591 98.4545C192.318 98.4545 196.576 97.7273 200.364 96.2727C204.152 94.7879 207.333 92.7273 209.909 90.0909C211.774 88.1605 213.249 86.0078 214.336 83.6328C214.75 82.727 215.108 81.7887 215.409 80.8182L205.045 77.9091C204.136 80.3333 202.848 82.3636 201.182 84ZM165.824 56.4545C165.888 55.437 166.013 54.437 166.198 53.4545C166.602 51.3102 167.293 49.2496 168.273 47.2727C169.939 43.9091 172.318 41.1818 175.409 39.0909C178.53 36.9697 182.227 35.9091 186.5 35.9091C190.379 35.9091 193.742 36.803 196.591 38.5909C199.47 40.3788 201.682 42.8182 203.227 45.9091C204.391 48.1927 205.126 50.7078 205.43 53.4545C205.537 54.4256 205.591 55.4256 205.591 56.4545H165.824ZM169.258 53.4545H202.409C202.121 51.1673 201.494 49.1145 200.555 47.2717L200.549 47.2612L200.544 47.2507C199.242 44.6458 197.406 42.6285 195.008 41.1394L195.002 41.1357L194.996 41.1319C192.695 39.6877 189.903 38.9091 186.5 38.9091C182.746 38.9091 179.655 39.8324 177.095 41.5721L177.09 41.5758C174.432 43.3741 172.399 45.7031 170.961 48.6047C170.19 50.1605 169.622 51.7752 169.258 53.4545ZM229.818 100V24.1818H246.182V29.1146C247.094 28.2753 248.099 27.5028 249.191 26.7976C253.036 24.3158 257.365 23.0909 262.091 23.0909C262.914 23.0909 263.926 23.1067 265.122 23.1373C266.323 23.1681 267.306 23.2157 268.026 23.2876L270.727 23.5578V41.0241L267 40.0922C266.822 40.0479 266.16 39.932 264.813 39.7439L264.773 39.7384L264.734 39.7319C263.64 39.5496 262.458 39.4545 261.182 39.4545C258.22 39.4545 255.685 40.0724 253.504 41.2371L253.493 41.243C251.318 42.3931 249.627 43.967 248.368 45.9904C247.174 47.9267 246.545 50.1724 246.545 52.8182V100H229.818ZM246.182 33.5532C245.226 34.8189 244.468 36.2103 243.909 37.7273H243.182V27.1818H232.818V97H243.545V52.8182C243.545 49.6667 244.303 46.8636 245.818 44.4091C247.364 41.9242 249.455 39.9848 252.091 38.5909C254.758 37.1667 257.788 36.4545 261.182 36.4545C262.421 36.4545 263.603 36.5348 264.727 36.6954C264.895 36.7194 265.062 36.7452 265.227 36.7727C266.53 36.9545 267.364 37.0909 267.727 37.1818V26.2727C267.121 26.2121 266.227 26.1667 265.045 26.1364C263.864 26.1061 262.879 26.0909 262.091 26.0909C257.909 26.0909 254.152 27.1667 250.818 29.3182C248.949 30.5249 247.403 31.9366 246.182 33.5532ZM284.549 122.715C284.444 122.695 284.341 122.674 284.241 122.654C283.016 122.406 282.156 122.157 281.659 121.909L284.386 112.455C286.992 113.121 289.295 113.364 291.295 113.182C293.295 113 295.068 112.106 296.614 110.5C298.189 108.924 299.629 106.364 300.932 102.818L302.932 97.3636L277.114 27.1818H288.75L308.023 82.8182H308.75L328.023 27.1818H339.659L310.023 107.182C308.689 110.788 307.038 113.773 305.068 116.136C303.098 118.53 300.811 120.303 298.205 121.455C295.629 122.606 292.72 123.182 289.477 123.182C287.659 123.182 286.038 123.03 284.614 122.727C284.592 122.723 284.57 122.719 284.549 122.715ZM284.02 125.668C282.605 125.396 281.264 125.066 280.317 124.592L278.085 123.476L282.31 108.827L285.13 109.548C287.51 110.157 289.458 110.336 291.024 110.194C292.225 110.085 293.348 109.567 294.452 108.42L294.472 108.399L294.492 108.379C295.618 107.253 296.873 105.166 298.116 101.783L299.736 97.3653L272.813 24.1818H290.886L308.386 74.7027L325.887 24.1818H343.97L312.837 108.222M284.02 125.668C285.685 126.02 287.511 126.182 289.477 126.182C293.076 126.182 296.409 125.542 299.422 124.196C302.49 122.84 305.143 120.766 307.381 118.047C309.612 115.367 311.414 112.068 312.836 108.224M388.273 100V0.909088H422.727C430.313 0.909088 436.808 2.20101 442.04 4.98512C447.195 7.69791 451.112 11.4966 453.66 16.3863C456.154 21.1705 457.364 26.5506 457.364 32.4545C457.364 38.3576 456.154 43.7147 453.652 48.4474C451.1 53.2754 447.196 57.0249 442.072 59.704L442.065 59.7075L442.058 59.7111C441.782 59.8535 441.503 59.9919 441.22 60.1262L463.064 100H443.118L423.512 63.6337C423.312 63.6355 423.111 63.6364 422.909 63.6364H405.545V100H388.273ZM402.545 60.6364H422.909C423.716 60.6364 424.506 60.6214 425.28 60.5915L444.909 97H458L436.971 58.6138C437.95 58.2805 438.885 57.9059 439.776 57.4902C440.083 57.3469 440.385 57.1986 440.682 57.0455C445.318 54.6212 448.758 51.2879 451 47.0455C453.242 42.803 454.364 37.9394 454.364 32.4545C454.364 26.9697 453.242 22.0758 451 17.7727C448.758 13.4697 445.303 10.0909 440.636 7.63636C435.97 5.15151 430 3.90909 422.727 3.90909H391.273V97H402.545V60.6364ZM402.545 50.4545H422.545C427.515 50.4545 431.515 49.7273 434.545 48.2727C437.606 46.8182 439.818 44.7576 441.182 42.0909C442.576 39.3939 443.273 36.1818 443.273 32.4545C443.273 28.7273 442.576 25.4697 441.182 22.6818C439.788 19.8939 437.561 17.7424 434.5 16.2273C431.439 14.6818 427.394 13.9091 422.364 13.9091H402.545V50.4545ZM405.545 47.4545H422.545C427.263 47.4545 430.769 46.7578 433.247 45.5682L433.258 45.5631C435.804 44.353 437.487 42.7275 438.511 40.725L438.517 40.7134C439.646 38.5285 440.273 35.81 440.273 32.4545C440.273 29.1026 439.647 26.3209 438.499 24.0235C437.425 21.8763 435.703 20.1705 433.169 18.9159L433.158 18.9106L433.148 18.9052C430.656 17.6471 427.127 16.9091 422.364 16.9091H405.545V47.4545ZM481.116 96.4922L481.108 96.4875C475.882 93.171 471.827 88.5416 468.936 82.6932L468.93 82.681C466.056 76.8024 464.67 70.0325 464.67 62.4545C464.67 54.8197 466.055 48.0061 468.927 42.0977L468.933 42.0855C471.823 36.2069 475.878 31.5589 481.108 28.2397L481.116 28.2351C486.409 24.8976 492.508 23.2727 499.307 23.2727C506.104 23.2727 512.191 24.8969 517.457 28.2378C522.717 31.5558 526.775 36.2045 529.637 42.0877C532.542 47.9988 533.943 54.8158 533.943 62.4545C533.943 70.0353 532.541 76.8081 529.635 82.6886C526.772 88.5427 522.713 93.1737 517.457 96.4895C512.191 99.8304 506.104 101.455 499.307 101.455C492.508 101.455 486.409 99.8297 481.116 96.4922ZM515.852 93.9545C520.61 90.9545 524.307 86.7576 526.943 81.3636C529.61 75.9697 530.943 69.6667 530.943 62.4545C530.943 55.1818 529.61 48.8333 526.943 43.4091C524.307 37.9848 520.61 33.7727 515.852 30.7727C511.125 27.7727 505.61 26.2727 499.307 26.2727C493.004 26.2727 487.473 27.7727 482.716 30.7727C477.989 33.7727 474.292 37.9848 471.625 43.4091C468.989 48.8333 467.67 55.1818 467.67 62.4545C467.67 69.6667 468.989 75.9697 471.625 81.3636C474.292 86.7576 477.989 90.9545 482.716 93.9545C487.473 96.9545 493.004 98.4545 499.307 98.4545C505.61 98.4545 511.125 96.9545 515.852 93.9545ZM499.307 85.8182C503.566 85.8182 506.805 84.7361 509.259 82.787C511.887 80.7005 513.866 77.9403 515.176 74.4105C516.526 70.7746 517.216 66.7982 517.216 62.4545C517.216 58.1111 516.526 54.1168 515.174 50.4462C513.861 46.8825 511.877 44.0903 509.245 41.9745C506.791 40.0017 503.558 38.9091 499.307 38.9091C495.056 38.9091 491.822 40.0017 489.368 41.9745C486.736 44.0903 484.753 46.8825 483.44 50.4462C482.088 54.1168 481.398 58.1111 481.398 62.4545C481.398 66.7982 482.088 70.7746 483.437 74.4105C484.748 77.9403 486.727 80.7005 489.354 82.787C491.809 84.7361 495.047 85.8182 499.307 85.8182ZM600.618 44.8478L585.302 49.1824L584.33 46.6046C583.842 45.3128 583.107 44.0137 582.089 42.7087L582.069 42.6826L582.049 42.6561C581.219 41.5426 580.033 40.5526 578.386 39.7287C576.934 39.0027 574.874 38.5455 572.045 38.5455C568.238 38.5455 565.31 39.4183 563.07 40.9675L563.064 40.9714C560.927 42.4421 560.136 44.0471 560.136 45.9091C560.136 47.7414 560.75 48.9524 561.915 49.8811C563.359 51.0319 565.9 52.189 569.857 53.1788C569.859 53.1794 569.862 53.1799 569.864 53.1805L580.208 55.721C580.21 55.7215 580.212 55.7221 580.214 55.7226C586.754 57.3107 591.995 59.8209 595.59 63.4834C599.274 67.2059 601.045 71.9827 601.045 77.5455C601.045 82.1613 599.703 86.3574 597.019 90.0342C594.392 93.675 590.762 96.4694 586.264 98.4687C581.717 100.489 576.53 101.455 570.773 101.455C563.222 101.455 556.71 99.8138 551.434 96.3193C546.051 92.7536 542.68 87.5277 541.291 80.887L540.7 78.0622L556.57 74.0947L557.314 76.9776C558.137 80.1686 559.615 82.3177 561.616 83.7149C563.703 85.1502 566.612 86 570.591 86C575.194 86 578.478 85.0214 580.744 83.3855C583.127 81.6582 583.955 79.9104 583.955 78.0909C583.955 76.4552 583.419 75.2127 582.327 74.1595L582.317 74.15L582.307 74.1403C581.156 73.0104 579.146 71.9477 575.911 71.1946L575.906 71.1936L564.263 68.4646C557.567 66.8779 552.238 64.3306 548.681 60.558L548.671 60.5473L548.661 60.5366C545.125 56.712 543.409 51.9446 543.409 46.4545C543.409 41.9132 544.698 37.8017 547.304 34.2312L547.31 34.2233L547.316 34.2155C549.899 30.724 553.374 28.0391 557.635 26.1267L557.643 26.1231C561.962 24.2001 566.781 23.2727 572.045 23.2727C579.363 23.2727 585.513 24.8755 590.147 28.4403C594.613 31.8523 597.771 36.3595 599.617 41.8643L600.618 44.8478ZM588.318 30.8182C584.379 27.7879 578.955 26.2727 572.045 26.2727C567.136 26.2727 562.742 27.1364 558.864 28.8636C555.015 30.5909 551.97 32.9697 549.727 36C547.515 39.0303 546.409 42.5152 546.409 46.4545C546.409 51.2727 547.894 55.2879 550.864 58.5C553.864 61.6818 558.561 64.0303 564.955 65.5455L576.591 68.2727C580.106 69.0909 582.712 70.3333 584.409 72C586.106 73.6364 586.955 75.6667 586.955 78.0909C586.955 81.0909 585.47 83.6667 582.5 85.8182C579.561 87.9394 575.591 89 570.591 89C566.197 89 562.636 88.0606 559.909 86.1818C557.212 84.303 555.379 81.4848 554.409 77.7273L544.227 80.2727C544.373 80.9689 544.542 81.6455 544.735 82.3025C544.821 82.5956 544.911 82.8849 545.007 83.1702C546.52 87.7019 549.215 91.2512 553.091 93.8182C557.758 96.9091 563.651 98.4545 570.773 98.4545C576.197 98.4545 580.955 97.5455 585.045 95.7273C589.136 93.9091 592.318 91.4242 594.591 88.2727C596.894 85.1212 598.045 81.5455 598.045 77.5455C598.045 72.6667 596.515 68.6818 593.455 65.5909C590.394 62.4697 585.742 60.1515 579.5 58.6364L569.136 56.0909C565.015 55.0606 561.985 53.7727 560.045 52.2273C558.106 50.6818 557.136 48.5758 557.136 45.9091C557.136 42.9091 558.545 40.4394 561.364 38.5C564.212 36.5303 567.773 35.5455 572.045 35.5455C575.167 35.5455 577.727 36.0455 579.727 37.0455C581.727 38.0455 583.303 39.3182 584.455 40.8636C585.636 42.3788 586.53 43.9394 587.136 45.5455L596.773 42.8182C596.447 41.8465 596.077 40.9119 595.663 40.0144C593.96 36.3214 591.512 33.256 588.318 30.8182ZM624.488 96.5569L624.478 96.5511C619.127 93.24 615.01 88.6217 612.137 82.7779L612.133 82.7688L612.128 82.7596C609.291 76.8873 607.92 70.1532 607.92 62.6364C607.92 55.1185 609.291 48.3597 612.123 42.434L612.126 42.4276C614.979 36.4921 618.996 31.7812 624.192 28.3956C629.462 24.951 635.561 23.2727 642.375 23.2727C646.352 23.2727 650.27 23.9366 654.118 25.2522C658.088 26.6095 661.676 28.8084 664.873 31.8036C668.175 34.8665 670.723 38.8511 672.581 43.6427C674.482 48.5439 675.375 54.4218 675.375 61.1818V68.7273H624.905C625.266 71.6715 625.997 74.1946 627.055 76.3333C628.661 79.4877 630.83 81.8091 633.559 83.4033C636.312 84.9813 639.582 85.8182 643.466 85.8182C646.001 85.8182 648.203 85.4646 650.108 84.8058C652.022 84.1243 653.628 83.1356 654.965 81.8493C656.282 80.5529 657.341 78.9098 658.111 76.8557L659.079 74.2762L675.063 78.763L674.149 81.7074C672.918 85.6741 670.841 89.1735 667.942 92.1751L667.936 92.1813L667.93 92.1874C665.028 95.1581 661.476 97.4421 657.333 99.0658L657.324 99.0696L657.314 99.0733C653.131 100.68 648.501 101.455 643.466 101.455C636.287 101.455 629.924 99.8658 624.497 96.5626L624.488 96.5569ZM657.057 84C655.39 85.6061 653.405 86.8182 651.102 87.6364C648.83 88.4242 646.284 88.8182 643.466 88.8182C639.133 88.8182 635.33 87.8788 632.057 86C628.784 84.0909 626.223 81.3182 624.375 77.6818C623.093 75.0963 622.263 72.1114 621.885 68.7273C621.777 67.7599 621.706 66.7599 621.671 65.7273H672.375V61.1818C672.375 54.6667 671.511 49.1818 669.784 44.7273C668.057 40.2727 665.739 36.697 662.83 34C659.92 31.2727 656.693 29.303 653.148 28.0909C649.602 26.8788 646.011 26.2727 642.375 26.2727C636.072 26.2727 630.557 27.8182 625.83 30.9091C621.133 33.9697 617.466 38.2424 614.83 43.7273C612.223 49.1818 610.92 55.4848 610.92 62.6364C610.92 69.7879 612.223 76.0606 614.83 81.4545C617.466 86.8182 621.208 91 626.057 94C630.936 96.9697 636.739 98.4545 643.466 98.4545C648.193 98.4545 652.451 97.7273 656.239 96.2727C660.026 94.7879 663.208 92.7273 665.784 90.0909C667.649 88.1605 669.124 86.0078 670.211 83.6328C670.625 82.7273 670.983 81.7894 671.284 80.8192C671.284 80.8189 671.284 80.8185 671.284 80.8182L660.92 77.9091C660.011 80.3333 658.723 82.3636 657.057 84ZM621.699 56.4545C621.763 55.437 621.888 54.437 622.073 53.4545C622.476 51.3102 623.168 49.2496 624.148 47.2727C625.814 43.9091 628.193 41.1818 631.284 39.0909C634.405 36.9697 638.102 35.9091 642.375 35.9091C646.254 35.9091 649.617 36.803 652.466 38.5909C655.345 40.3788 657.557 42.8182 659.102 45.9091C660.266 48.1927 661.001 50.7078 661.305 53.4545C661.412 54.4256 661.466 55.4256 661.466 56.4545H621.699ZM625.133 53.4545H658.284C657.996 51.1673 657.369 49.1145 656.43 47.2717L656.424 47.2612L656.419 47.2507C655.116 44.6458 653.281 42.6285 650.883 41.1394L650.877 41.1357L650.871 41.1319C648.57 39.6877 645.778 38.9091 642.375 38.9091C638.621 38.9091 635.53 39.8324 632.97 41.5721L632.965 41.5758C630.307 43.3741 628.274 45.7031 626.836 48.6047C626.065 50.1605 625.497 51.7752 625.133 53.4545ZM511.125 85.1364C508.034 87.5909 504.095 88.8182 499.307 88.8182C494.519 88.8182 490.58 87.5909 487.489 85.1364C484.398 82.6818 482.11 79.4545 480.625 75.4545C479.14 71.4545 478.398 67.1212 478.398 62.4545C478.398 57.7879 479.14 53.4394 480.625 49.4091C482.11 45.3788 484.398 42.1212 487.489 39.6364C490.58 37.1515 494.519 35.9091 499.307 35.9091C504.095 35.9091 508.034 37.1515 511.125 39.6364C514.216 42.1212 516.504 45.3788 517.989 49.4091C519.473 53.4394 520.216 57.7879 520.216 62.4545C520.216 67.1212 519.473 71.4545 517.989 75.4545C516.504 79.4545 514.216 82.6818 511.125 85.1364Z" fill="black"/>
</svg>
