<?xml version="1.0" standalone="no"?>
<!DOCTYPE svg PUBLIC "-//W3C//DTD SVG 20010904//EN"
 "http://www.w3.org/TR/2001/REC-SVG-20010904/DTD/svg10.dtd">
<svg version="1.0" xmlns="http://www.w3.org/2000/svg"
 width="1104.000000pt" height="1104.000000pt" viewBox="0 0 1104.000000 1104.000000"
 preserveAspectRatio="xMidYMid meet">
<metadata>
Created by potrace 1.14, written by Peter Selinger 2001-2017
</metadata>
<g transform="translate(0.000000,1104.000000) scale(0.100000,-0.100000)"
fill="#000000" stroke="none">
<path d="M6174 8401 c-31 -95 -57 -179 -58 -185 -2 -12 -64 -209 -98 -311 -11
-33 -21 -67 -23 -75 -2 -8 -22 -73 -45 -145 -23 -71 -43 -137 -45 -145 -2 -8
-4 -16 -5 -17 -2 -2 -3 -6 -4 -10 -2 -5 -11 -35 -21 -68 -11 -33 -20 -62 -20
-65 -1 -3 -4 -12 -8 -20 -4 -13 -18 -62 -21 -80 -1 -3 -4 -9 -7 -15 -6 -10
-20 -63 -18 -67 0 -2 -9 -28 -21 -58 -12 -30 -21 -56 -20 -58 1 -1 -8 -33 -20
-70 -12 -37 -23 -71 -25 -77 -1 -5 -5 -17 -8 -25 -3 -8 -22 -69 -42 -135 -20
-66 -53 -169 -72 -230 -19 -60 -36 -117 -38 -125 -2 -8 -12 -41 -23 -72 -11
-32 -18 -58 -15 -58 3 0 0 -6 -6 -13 -6 -8 -12 -22 -14 -33 -2 -10 -6 -26 -9
-34 -8 -24 -80 -254 -82 -265 -2 -5 -13 -44 -26 -85 -14 -41 -25 -78 -26 -82
-1 -5 -3 -10 -4 -13 -1 -3 -3 -8 -4 -12 -1 -5 -10 -35 -21 -68 -10 -33 -19
-64 -21 -70 -3 -12 -76 -242 -105 -330 -11 -33 -21 -64 -22 -70 -1 -5 -6 -16
-10 -22 -5 -7 -6 -13 -2 -13 3 0 -1 -16 -9 -35 -9 -20 -15 -36 -14 -38 1 -2
-46 -161 -57 -195 -3 -7 -5 -14 -5 -17 0 -3 -8 -24 -16 -47 -9 -24 -17 -50
-19 -58 -2 -8 -13 -44 -25 -80 -12 -36 -23 -69 -24 -75 -2 -5 -5 -17 -8 -25
-9 -23 -69 -221 -73 -239 -2 -9 -19 -63 -38 -121 -30 -90 -64 -201 -73 -235
-1 -5 -21 -66 -43 -134 -22 -68 -43 -139 -47 -157 -3 -19 -10 -34 -16 -34 -5
0 -8 -6 -7 -12 1 -7 -6 -40 -16 -73 -11 -33 -20 -62 -20 -65 -1 -3 -4 -12 -8
-20 -7 -18 -50 -161 -53 -175 -1 -5 -18 -61 -39 -124 -20 -62 -38 -118 -40
-125 -1 -6 -4 -18 -8 -26 -6 -18 -38 -121 -42 -135 -1 -5 -7 -23 -13 -38 -7
-16 -12 -34 -12 -42 0 -8 -5 -26 -12 -42 -6 -15 -12 -32 -13 -38 -3 -12 -23
-75 -71 -225 -20 -63 -37 -121 -38 -129 -1 -11 49 -14 288 -15 179 -1 294 3
302 9 7 6 15 21 18 35 2 14 11 42 19 63 9 21 16 38 15 40 0 1 12 43 27 92 15
50 27 92 27 95 0 3 9 27 19 53 11 26 19 57 19 67 0 11 4 20 8 20 4 0 8 8 9 17
1 10 8 38 16 63 8 25 36 113 62 195 26 83 53 170 62 195 8 25 16 52 18 60 2 8
19 62 38 120 19 58 47 146 62 195 15 50 30 99 35 110 8 22 53 164 56 180 5 24
46 151 53 165 5 9 12 31 17 50 10 42 9 41 16 60 11 27 110 344 112 354 1 6 4
16 8 21 3 6 9 26 13 45 4 19 12 41 17 48 6 6 8 12 4 12 -3 0 1 17 9 38 7 20
41 127 75 237 34 110 65 209 70 220 10 22 31 90 34 108 2 13 24 84 33 107 4 8
7 17 8 20 5 19 97 313 103 330 3 8 6 18 7 23 2 4 3 8 5 10 1 1 3 9 5 17 7 36
108 346 116 356 5 6 7 13 4 16 -3 2 7 38 21 79 14 41 27 81 29 89 3 14 42 139
83 265 8 28 16 52 17 55 1 3 12 39 25 80 13 41 24 77 25 80 0 3 14 46 30 95
16 50 30 95 31 100 1 6 11 37 22 70 17 51 103 320 107 335 11 43 28 97 33 105
4 6 7 15 8 20 1 6 21 71 44 145 23 74 48 156 56 182 7 25 18 56 24 67 6 12 8
26 5 31 -3 6 -1 10 6 10 7 0 10 3 7 6 -4 3 5 38 19 77 13 40 27 81 29 92 3 11
6 25 8 30 4 18 37 119 45 140 9 22 51 159 51 166 0 2 -137 4 -305 4 l-306 0
-55 -174z"/>
<path d="M2669 7271 c-52 -38 -101 -75 -109 -82 -9 -8 -35 -27 -58 -42 -24
-15 -51 -35 -60 -43 -16 -15 -214 -161 -263 -194 -20 -14 -105 -77 -154 -114
-76 -58 -238 -176 -242 -176 -2 0 -10 -6 -17 -12 -7 -7 -24 -21 -37 -30 -44
-32 -112 -83 -148 -111 -20 -15 -44 -30 -53 -33 -10 -4 -18 -10 -18 -14 0 -4
-19 -20 -42 -35 -23 -15 -47 -32 -52 -37 -6 -4 -42 -32 -81 -60 -38 -29 -71
-55 -73 -60 -2 -4 -10 -8 -18 -8 -8 0 -14 -4 -14 -10 0 -5 -5 -10 -12 -10 -6
0 -18 -7 -27 -15 -21 -20 -99 -79 -186 -140 -38 -27 -77 -55 -85 -62 -8 -7
-49 -37 -90 -67 -41 -31 -80 -60 -87 -66 -7 -5 -16 -10 -22 -10 -5 0 -11 -4
-13 -8 -1 -5 -73 -60 -158 -123 -85 -62 -156 -117 -158 -121 -2 -5 -10 -8 -17
-8 -8 0 -16 -8 -19 -17 -2 -10 -5 -131 -5 -269 l-1 -252 76 -56 c41 -31 77
-56 80 -56 3 0 11 -6 18 -12 7 -7 25 -22 41 -33 15 -11 40 -30 55 -42 15 -13
31 -23 34 -23 4 0 16 -9 28 -20 12 -11 40 -32 62 -47 23 -15 43 -30 46 -33 3
-3 35 -27 72 -53 36 -26 74 -54 82 -63 9 -8 16 -12 16 -7 0 4 4 3 8 -3 4 -6
75 -60 157 -119 138 -101 232 -170 262 -195 7 -6 17 -10 23 -10 5 0 10 -4 10
-8 0 -4 12 -15 28 -24 15 -9 36 -25 47 -35 11 -10 33 -27 50 -37 16 -11 34
-23 40 -28 9 -8 129 -96 180 -134 11 -7 45 -32 75 -54 30 -22 64 -47 75 -54
11 -8 67 -50 125 -92 212 -156 246 -181 305 -224 33 -24 62 -46 65 -49 3 -4
32 -24 64 -46 33 -22 70 -49 82 -61 13 -11 44 -34 69 -49 25 -16 45 -33 45
-37 0 -4 6 -8 14 -8 8 0 16 -4 18 -8 7 -17 70 -54 77 -46 4 5 54 65 112 134
57 69 106 127 109 130 3 3 37 43 75 90 38 47 74 88 80 93 6 5 3 13 -10 23 -11
8 -30 24 -42 34 -13 11 -23 17 -23 12 0 -4 -4 -2 -8 3 -12 17 -80 65 -91 65
-6 0 -11 5 -11 10 0 6 -8 14 -17 17 -15 6 -53 32 -124 86 -8 7 -51 36 -95 66
-43 30 -81 58 -84 62 -3 3 -19 15 -35 25 -17 11 -113 78 -214 149 -100 72
-200 141 -221 155 -21 14 -48 33 -61 42 -110 81 -164 119 -219 158 -36 24 -69
48 -75 53 -37 30 -136 97 -144 97 -5 0 -11 3 -13 8 -2 4 -38 32 -81 62 -114
81 -210 149 -228 163 -8 7 -23 17 -31 22 -59 38 -144 100 -146 107 -2 4 -10 8
-18 8 -8 0 -14 3 -14 8 0 4 -9 12 -19 17 -11 6 -56 36 -101 68 l-81 58 30 24
c16 14 34 25 40 25 6 0 11 3 11 8 0 4 18 18 40 32 22 14 40 28 40 32 0 5 4 8
10 8 5 0 40 22 77 50 37 27 83 60 101 72 18 13 39 28 45 33 7 6 35 26 62 45
28 19 52 38 53 42 2 4 10 8 18 8 8 0 14 5 14 10 0 6 6 10 14 10 8 0 16 3 18 8
2 4 46 37 98 75 52 37 103 73 112 79 9 7 25 19 35 26 51 36 401 285 418 298
59 43 208 149 260 186 33 23 74 51 90 62 17 12 32 23 35 27 3 3 65 48 139 100
236 167 256 181 259 190 2 5 8 9 13 9 8 0 145 95 172 120 5 4 -22 43 -60 87
-37 43 -87 101 -110 129 -23 27 -51 60 -63 74 -12 14 -49 58 -82 98 -34 39
-64 72 -68 72 -3 0 -49 -31 -101 -69z"/>
<path d="M8134 7178 c-76 -90 -141 -165 -144 -168 -3 -3 -27 -31 -54 -63 l-49
-59 24 -22 c13 -12 39 -31 57 -41 17 -11 32 -23 32 -27 0 -4 4 -8 10 -8 5 0
40 -23 77 -50 170 -127 203 -150 212 -150 5 0 11 -4 13 -8 2 -5 28 -26 58 -47
30 -21 59 -42 65 -47 5 -4 64 -47 130 -94 66 -47 129 -92 140 -99 11 -8 47
-34 80 -57 33 -23 65 -47 72 -53 34 -29 43 -35 48 -35 5 0 112 -77 150 -108 6
-4 33 -23 60 -42 28 -18 52 -36 55 -39 3 -3 28 -22 55 -41 28 -19 52 -38 53
-42 2 -4 8 -8 12 -8 9 0 169 -114 203 -144 9 -9 20 -16 25 -16 4 0 18 -9 32
-21 14 -11 58 -43 98 -71 39 -28 72 -54 72 -59 0 -5 3 -8 8 -7 7 3 79 -44 112
-72 9 -8 24 -19 32 -25 9 -5 59 -41 112 -78 89 -63 112 -87 85 -87 -6 0 -16
-6 -23 -12 -8 -7 -24 -20 -36 -28 -12 -8 -28 -20 -34 -25 -6 -6 -35 -26 -63
-45 -29 -18 -53 -37 -53 -42 0 -4 -4 -8 -9 -8 -5 0 -101 -65 -213 -145 -112
-79 -211 -150 -221 -157 -58 -41 -224 -161 -237 -171 -8 -7 -32 -23 -53 -36
-21 -12 -43 -28 -50 -35 -6 -7 -34 -27 -62 -46 -27 -19 -51 -37 -53 -42 -2 -4
-8 -8 -12 -8 -7 0 -213 -143 -255 -177 -5 -5 -64 -46 -130 -93 -66 -46 -126
-90 -133 -97 -7 -7 -20 -13 -28 -13 -8 0 -14 -4 -14 -8 0 -4 -61 -51 -136
-102 -74 -52 -145 -103 -157 -113 -12 -10 -34 -26 -49 -35 -16 -9 -28 -20 -28
-24 0 -4 -5 -8 -10 -8 -11 0 -120 -79 -120 -87 0 -4 67 -88 95 -119 6 -6 30
-35 55 -64 25 -30 60 -71 78 -91 17 -20 32 -39 32 -42 0 -3 10 -17 23 -29 12
-13 40 -46 63 -72 l41 -49 39 29 c21 16 41 32 42 37 2 4 8 7 14 7 5 0 15 6 22
13 8 6 24 19 36 27 13 8 35 24 49 36 14 11 85 62 156 114 72 51 132 97 133
102 2 4 10 8 17 8 7 0 15 4 17 8 2 4 48 40 103 80 55 40 111 81 125 92 14 11
64 48 112 82 242 176 402 293 412 303 6 5 34 26 61 44 28 19 52 37 55 40 3 4
28 22 55 41 28 19 55 38 60 42 6 5 42 32 80 60 39 29 76 58 83 65 7 7 17 13
22 13 5 0 22 11 37 25 30 27 41 35 65 50 42 26 273 199 276 207 2 4 8 8 13 8
9 0 128 86 173 125 6 6 37 28 68 49 102 69 93 39 92 327 -1 140 -2 257 -3 261
0 3 -38 32 -82 65 -45 32 -87 63 -93 68 -6 6 -41 32 -78 58 -36 26 -73 54 -82
62 -8 8 -17 15 -20 15 -4 0 -242 175 -279 205 -9 8 -19 15 -22 15 -5 0 -37 25
-60 48 -8 6 -17 12 -21 12 -8 0 -96 69 -106 85 -5 6 -8 6 -8 0 0 -6 -3 -6 -8
0 -4 6 -23 22 -42 35 -19 13 -37 27 -40 30 -3 4 -25 20 -50 37 -40 27 -58 41
-107 83 -7 5 -15 10 -18 10 -5 0 -137 97 -195 143 -8 7 -31 23 -50 37 -19 13
-39 28 -45 32 -25 20 -128 95 -160 118 -20 14 -42 30 -48 35 -7 6 -28 22 -47
35 -19 13 -37 27 -40 30 -3 3 -21 17 -40 30 -19 13 -102 74 -185 135 -82 61
-177 131 -210 155 -33 24 -64 48 -70 52 -45 35 -106 78 -111 78 -4 0 -17 11
-29 24 -20 21 -56 46 -68 46 -3 0 -67 -73 -143 -162z"/>
</g>
</svg>
